<svg data-name="tunnus" xmlns="http://www.w3.org/2000/svg" viewBox="0 0 115.58 89.23"><title>suomi100Artboard 1</title><path d="M64.67 49.3c-.37.29-2.67 1.82-4.45 1.82s-2-1.79-2-2.55a5.19 5.19 0 0 1 .28-1.68c-2.89 1.59-5.08 2.58-6 2.58s-1.36-.22-1.36-1c0-1.5 1.58-2.3 3.6-5.9.31-.56 0-.54-.63-.11-3 2.07-7.79 6-8.08 6.52a1.92 1.92 0 0 1-1.73 1.25 1 1 0 0 1-1-1c0-1.07.6-1.39 2.41-4.5-4.14 2.94-8.39 5.33-10.51 5.33-.77 0-1.65-.29-1.65-1.11 0-1.19.82-2.38 6.41-8.05a85.64 85.64 0 0 1-10.24 2.15c-1.67 3.24-3.65 6.61-6 10.3-.93 1.47-1.81 1.3-1.81.16 0-.85.31-.51.65-1.07 1.76-2.78 3.54-5.9 5.16-9-3.26.51-6.95 1-11.2 1.68-3.69.51-12.16 1.3-14.2 1.78 0 .29 0 .6-.43.6s-1-.51-1-1 .2-.71.77-.85c1-.28 5.75-.93 7.65-1.19 1.56-.25 6.61-.79 8.39-1 2.81-.29 7.06-.82 10.66-1.31a69.36 69.36 0 0 0 3.8-9.12c-4.87.59-11.17 1.36-16 1.64-1.08.08-1.22.28-.68.79.77.74.74 1.22.54 1.22a4.57 4.57 0 0 1-1.36-.71c-.94-.56-1.93-1.05-1.93-1.67 0-1.27 2.89-1.27 5.64-1.53l14.24-1.28c.19-.7.39-1.39.53-2.07s0-1 .23-1.58a1.05 1.05 0 0 1 1.05-.74c1.73 0 1.25 1.93.77 3.35-.09.28-.2.53-.29.82 10.26-1.05 14.43-1.59 22.65-2.58.29-.06.46 0 .46.14s-.34.37-1 .51c-3.07.74-14.61 2.44-22.66 3.43a93.8 93.8 0 0 1-4 9.07c.9-.11 1.73-.25 2.41-.37A60.14 60.14 0 0 0 39.25 40a14.14 14.14 0 0 1 2.75-.62 1 1 0 0 1 1 1c0 .57-.91 1.14-1.61 1.7-.94.83-4 3.89-5.45 5.56-.62.71-1 1.56-.17 1.56 2.75 0 10.72-5.61 12.79-8.42.4-.51.68-.82 1.16-.82a.9.9 0 0 1 .88.85c0 .28-.28.59-.79 1.19a28.09 28.09 0 0 0-3.32 5.36 58.58 58.58 0 0 1 6.8-5.5c1.19-.88 1.62-1.56 2.41-1.56s1.73.82 1.73 1.44c0 1.08-.65 1.59-3.68 5.9-.4.57-.23 1 1.3.34 1.11-.51 2.38-1.16 3.74-1.93 1.68-3.74 6.35-8.22 10.35-11.59A76.68 76.68 0 0 1 78.28 28c.25-.14.45-.37.68-.51.45-.25 1.13-.59 1.53-.82a6.93 6.93 0 0 1 1.13-.62c2-.8 3.46-.29 3.46.79 0 .77-.65 2-2.18 3.46-1.82 1.81-7.09 5.67-12.76 9.44-3.12 2.07-6.35 4.11-9.21 5.78a6.25 6.25 0 0 0-1.16 3.18c0 .74.25 1.22 1 1.22a8.37 8.37 0 0 0 3.63-1.53c.92-.59 1.29.23.27.91zM9.3 21.77c0-2.49 2-4.5 4.54-5.92a28.51 28.51 0 0 1 8.9-3.09c.45-.09.62 0 .62.17s-.34.37-1.13.51a28.26 28.26 0 0 0-8 3.18c-2.3 1.33-3.8 3-3.8 4.9 0 2.55 3.6 3.74 7.42 3.74 7.18 0 15-3.68 15-9.47 0-3.17-3.49-5.27-3.49-8.59s3.43-5.53 7.62-5.53c2.41 0 4.82.63 4.82 1.22 0 .17-.17.29-.59.2a16.09 16.09 0 0 0-3.46-.42c-3.83 0-6.41 2-6.41 4.42a3.5 3.5 0 0 0 .4 1.62c.11.22.28.45.42.68 1 1.72 2.84 3.4 2.84 6.6 0 6.32-8.34 11.14-17 11.14-5.21 0-8.7-2.38-8.7-5.36zm12 41.94l6.64-4.26v27.11h-6.73zm41 9.41a14.21 14.21 0 1 1-14.2-14.18 14.23 14.23 0 0 1 14.19 14.18zm-20.9-60c.49-.48.63-.85 1-1.13a3.72 3.72 0 0 1 1.19-.66c.31-.08.34.09.51.09.71 0 .37.76-.51 1.61a31.3 31.3 0 0 0-3.38 4.57 4.63 4.63 0 0 0-.76 2c0 .48.22.74.62.74a2.55 2.55 0 0 0 1.14-.4 26.06 26.06 0 0 0 3.48-2.55 24.09 24.09 0 0 1 3.43-5.24 2.26 2.26 0 0 1 1.65-.91c.48 0 .71.23.71.65 0 1-1.56 2.84-3.15 4a17.44 17.44 0 0 0-2 4.31c0 .25.11.37.45.37a8.1 8.1 0 0 0 3.09-1.14c.57-.28.94-.34.94-.2s-.09.26-.32.46a8.83 8.83 0 0 1-4.53 2 1.16 1.16 0 0 1-1.25-1.22 3.81 3.81 0 0 1 .45-1.75A13.69 13.69 0 0 1 41.37 21a3.71 3.71 0 0 1-1.93.68c-1.28 0-1.73-.68-1.73-1.64v-1c-.03-1.6 2.44-4.72 3.68-5.94zm14.21 60a7.52 7.52 0 1 0-7.51 7.48 7.54 7.54 0 0 0 7.5-7.48zm-9.42-38.45c.73.37 1 .46 1 .8s-.48.57-1 .57a1.72 1.72 0 0 1-1.73-1.28.6.6 0 0 1 .54-.54 3.22 3.22 0 0 1 1.19.45zM51 18.91c0-1.84 2.58-3.66 3.85-4.28a1.57 1.57 0 0 1 .65-.17.5.5 0 0 1 .5.54c0 .23-.12.4-.46.62s-.76.23-1.19.46c-1.76 1-2 2.86-.94 2.86 1.73 0 4.6-2.72 4.14-4.45a1.17 1.17 0 0 1-.59.14.87.87 0 0 1-.88-.85 1 1 0 0 1 1.16-.93 1.22 1.22 0 0 1 1.11.53A51.3 51.3 0 0 0 63 11.17a2.8 2.8 0 0 1 1.58-.54c.71 0 1.48.34 1.48 1.17 0 1-.68 1.47-1.45 2.92-1.5 2.86-2.44 4.13-2.61 4.76 2.36-2.72 3.86-4.62 5.9-6.64a14.65 14.65 0 0 0 1.33-1.41 1.46 1.46 0 0 1 1.25-.54 1 1 0 0 1 1 1.16 23.91 23.91 0 0 1-2 6.07c2.15-3 3.43-5.08 4.42-6.27.65-.76.68-1.36 2-1.36a1.45 1.45 0 0 1 1.44 1.67c0 1.73-1.5 4.34-1.47 6.81 0 1.19.25 1.59 1.1 1.59 1.56 0 3.92-1.42 5.87-3.58a14.77 14.77 0 0 1 3.21-4.79c1.27-1.13 2.41-.68 2.41.2 0 .65-.51 1-1.19 1.45-1.37 1-3.32 4.22-3.32 5.41 0 .31.08.4.42.4a16.42 16.42 0 0 0 3.07-1.11c1.3-.62 3-1.7 4.39-2.35a13.69 13.69 0 0 1 3.66-1.36c.51-.09.62.23.2.4-3.94 1.5-5 2.69-8.45 4.67a8.7 8.7 0 0 1-3.43 1.42c-1 0-1.53-.62-1.53-1.7a5.28 5.28 0 0 1 .17-1.36c-1.65 1.53-3.77 3.43-6 3.43a2.38 2.38 0 0 1-2.66-2.64 6.41 6.41 0 0 1 .12-1.05 4 4 0 0 0 .14-.53c.23-2 1.31-3.58 1.31-4.68 0-.82-.31-1-.8-.43s-2.77 4-4.73 6.78c-.68.93-1.3 1.93-1.56 2.32a1.16 1.16 0 0 1-1 .66.92.92 0 0 1-.94-1 6.75 6.75 0 0 1 1-2.1 36.94 36.94 0 0 0 1.81-5.21c.17-.85-.14-.85-.93-.06-3.09 3.09-3.41 3.8-6.21 7-.68.74-1 .83-1.45.83a1.12 1.12 0 0 1-1.05-1.11c0-1 .37-1.08 1.19-2.49.12-.2.29-.32.4-.51a35 35 0 0 0 2-4c.08-.2.22-.34.28-.51s.08-.28.14-.4c.26-.51 0-.65-.59-.45S61 13 58.6 13.89a6.18 6.18 0 0 1 .06.71c0 2.33-3.2 5.84-6.07 5.84A1.42 1.42 0 0 1 51 18.91zm10.77 25.4c2.58-1.56 5.39-3.37 8.08-5.13 5.42-3.6 10.49-7.31 12.81-9.84.74-.79 1-1.3 1-1.58 0-.43-.82-.26-2.26.59-5.59 3.21-15.4 10.38-19.65 15.96zm33.29 28.81a14.21 14.21 0 1 1-14.2-14.18 14.24 14.24 0 0 1 14.2 14.18zm19.2-27.56a.93.93 0 0 1-.43.63c-1.93 1.64-7.8 4.48-11.06 4.48-4.62 0-4-4.31-.73-9.73-2.44 2.78-6.84 8.48-9.04 8.48a1.89 1.89 0 0 1-2-1.7 2.46 2.46 0 0 1 .11-.74c-2.21 1.5-3.91 2.52-4.7 2.52a1.49 1.49 0 0 1-1.7-1.5c0-2 1.08-3.26 2.44-6.07.51-1.16.43-1.61-.54-.45-.71.85-2.38 2.55-3.82 4-.23.22-.2.42-.4.62-1.22 1.22-2.35 2.16-3 2.84-.17.2.12.71-.9.71a1 1 0 0 1-1.11-.91 12.6 12.6 0 0 1 .8-2.64c-1.68 1.5-3.49 3.15-5.17 3.15a1.63 1.63 0 0 1-1.58-1.73 3.93 3.93 0 0 1-2.41 1 1.83 1.83 0 0 1-2-1.79c0-2.38 3.14-5.13 5.69-5.81.85-.22.85.11 1.7 0a.6.6 0 0 1 .71.6.51.51 0 0 1-.17.45.43.43 0 0 1 .17.4 9.63 9.63 0 0 1-2 3.57c-.34 1-.17 2.18.43 2.18 1.36 0 3.68-1.92 5.47-4a22.15 22.15 0 0 1 1.53-3.29c.85-1.36 1.47-1.9 2.07-1.9a1 1 0 0 1 .94 1 7.77 7.77 0 0 1-1.76 2.81c-.34.68-.8 1.7-1.68 4 1.82-1.84 5.28-5.19 6.21-6.21S87.52 39 88.09 39a1.7 1.7 0 0 1 1.59 1.48 4.75 4.75 0 0 1-.63 2c-1 2-2.69 4.71-2.69 5.59 0 .22.06.28.31.28A18.88 18.88 0 0 0 91.43 46c1.42-3 5.62-6.75 7.88-6.75.63 0 1 .31 1 .71s-.16.45-.73.9c-.31.23.25.2-1.19 1.17-1.22.82-2.64 1.93-3.77 2.61a9.07 9.07 0 0 0-1.48 3c0 .23.09.31.34.31 1.28 0 7.77-7.12 9.87-9.7a35.49 35.49 0 0 1 3.23-5.92c.45-.6.82-.85 1.28-.85a.83.83 0 0 1 .76.42c.12.23.34.17.34.4a3.55 3.55 0 0 1-.66 1.7c-.34.53-2.61 3.94-3.85 6-2.75 4.48-4.82 9.61-1.08 9.61 3 0 8.25-2.61 10.06-3.91.51-.45.83-.39.83-.14zM73 43.26a4.17 4.17 0 0 1 .54-.76c-2 .91-4.68 3.12-4.68 4.42 0 .4.17.57.51.57a5 5 0 0 0 2.3-1.36 10.4 10.4 0 0 1 .91-2.38c.14-.2.34-.29.42-.49zm15.34 29.86a7.5 7.5 0 1 0-7.48 7.48 7.52 7.52 0 0 0 7.48-7.48zM89.7 7.66c0-.54.46-.63 1.34-1.59a11.94 11.94 0 0 0 1.9-2.67c.25-.51.31-.82.53-.82s.4.31.4.77c0 1.67-2.1 4.79-3.6 4.79a.57.57 0 0 1-.57-.48z" fill="#fff"/></svg>